<svg width="657.9px" height="122px" xmlns="http://www.w3.org/2000/svg" viewBox="-78.94687499999998 14 657.89375 122" style="background: rgba(0, 0, 0, 0)" preserveAspectRatio="xMidYMid"><defs><linearGradient id="editing-gradient-gradient" x1="0" x2="1" y1="0.5" y2="0.5" gradientUnits="objectBoundingBox"><stop offset="0" stop-color="#00ffff"></stop><stop offset="1" stop-color="#ff00ff"></stop></linearGradient></defs><g><g transform="matrix(1.4,0,0,1.4,-43.1,139.6)"><path d="M -4.8 -37.1 L -18.8 -37.1 L -10.7 -79.4 L 3.4 -79.4 L -4.8 -37.1 Z M 50.9 -35.8 L 50.9 -35.8 L 50.9 -35.8 Q 43.2 -35.8 43.2 -41.9 L 43.2 -41.9 L 43.2 -41.9 Q 43.2 -44.5 44.3 -49.6 L 44.3 -49.6 L 44.3 -49.6 Q 45.4 -54.7 45.8 -56.7 L 45.8 -56.7 L 45.8 -56.7 Q 46.7 -61.4 46.7 -62.8 L 46.7 -62.8 L 46.7 -62.8 Q 46.7 -66.1 44.2 -66.1 L 44.2 -66.1 L 44.2 -66.1 Q 42.6 -66.1 41.1 -63.9 L 41.1 -63.9 L 41.1 -63.9 Q 39.6 -61.7 38.9 -57.3 L 38.9 -57.3 L 34.9 -37.1 L 22.4 -35.8 L 25.9 -53.2 L 25.9 -53.2 Q 26.5 -56.1 27 -59.4 L 27 -59.4 L 27 -59.4 Q 27.5 -62.7 27.5 -63.2 L 27.5 -63.2 L 27.5 -63.2 Q 27.5 -66.1 25.3 -66.1 L 25.3 -66.1 L 25.3 -66.1 Q 23.8 -66.1 22.2 -63.9 L 22.2 -63.9 L 22.2 -63.9 Q 20.6 -61.8 19.7 -57.3 L 19.7 -57.3 L 15.8 -37.1 L 3.2 -35.8 L 9.9 -69.8 L 20.4 -71 L 19.3 -64.6 L 19.3 -64.6 Q 21 -68 24 -69.5 L 24 -69.5 L 24 -69.5 Q 27.1 -71 31.9 -71 L 31.9 -71 L 31.9 -71 Q 34.6 -71 36.4 -69.7 L 36.4 -69.7 L 36.4 -69.7 Q 38.2 -68.3 38.8 -66.2 L 38.8 -66.2 L 38.8 -66.2 Q 39.9 -68.4 42.7 -69.7 L 42.7 -69.7 L 42.7 -69.7 Q 45.5 -71 48.9 -71 L 48.9 -71 L 48.9 -71 Q 52.3 -71 54 -70.3 L 54 -70.3 L 54 -70.3 Q 55.7 -69.6 56.7 -68.3 L 56.7 -68.3 L 56.7 -68.3 Q 58.5 -66.1 58.5 -62 L 58.5 -62 L 58.5 -62 Q 58.5 -58 56.7 -49.6 L 56.7 -49.6 L 56.7 -49.6 Q 55.8 -45.5 55.8 -44 L 55.8 -44 L 55.8 -44 Q 55.8 -42.5 56.7 -41.6 L 56.7 -41.6 L 56.7 -41.6 Q 57.6 -40.7 58.8 -40.6 L 58.8 -40.6 L 58.8 -40.6 Q 58.2 -38.4 56 -37.1 L 56 -37.1 L 56 -37.1 Q 53.8 -35.8 50.9 -35.8 Z M 66.6 -39 L 66.6 -39 L 66.6 -39 Q 65 -40.7 64.4 -43.3 L 64.4 -43.3 L 64.4 -43.3 Q 63.7 -45.9 63.7 -50.2 L 63.7 -50.2 L 63.7 -50.2 Q 63.7 -54.5 65.2 -58.4 L 65.2 -58.4 L 65.2 -58.4 Q 66.6 -62.3 69.3 -65.1 L 69.3 -65.1 L 69.3 -65.1 Q 74.8 -71 83.9 -71 L 83.9 -71 L 83.9 -71 Q 87.2 -71 89.6 -69.9 L 89.6 -69.9 L 100.5 -71 L 95.8 -46.1 L 95.8 -46.1 Q 95.6 -45.3 95.6 -43.9 L 95.6 -43.9 L 95.6 -43.9 Q 95.6 -42.5 96.4 -41.6 L 96.4 -41.6 L 96.4 -41.6 Q 97.3 -40.7 98.6 -40.6 L 98.6 -40.6 L 98.6 -40.6 Q 97.9 -38.4 95.6 -37.1 L 95.6 -37.1 L 95.6 -37.1 Q 93.3 -35.8 90.6 -35.8 L 90.6 -35.8 L 90.6 -35.8 Q 88 -35.8 86.3 -36.8 L 86.3 -36.8 L 86.3 -36.8 Q 84.5 -37.8 84 -39.5 L 84 -39.5 L 84 -39.5 Q 83 -37.9 80.8 -36.9 L 80.8 -36.9 L 80.8 -36.9 Q 78.6 -35.8 75.7 -35.8 L 75.7 -35.8 L 75.7 -35.8 Q 72.8 -35.8 70.4 -36.6 L 70.4 -36.6 L 70.4 -36.6 Q 68.1 -37.4 66.6 -39 Z M 80.1 -65 L 80.1 -65 L 80.1 -65 Q 79.3 -63.9 78.7 -61.9 L 78.7 -61.9 L 78.7 -61.9 Q 78 -60 77 -54.7 L 77 -54.7 L 77 -54.7 Q 75.9 -49.5 75.9 -45.8 L 75.9 -45.8 L 75.9 -45.8 Q 75.9 -42.1 76.5 -41 L 76.5 -41 L 76.5 -41 Q 77.1 -39.9 78.1 -39.9 L 78.1 -39.9 L 78.1 -39.9 Q 80.2 -39.9 81.7 -41.9 L 81.7 -41.9 L 81.7 -41.9 Q 83.2 -43.8 83.7 -47.3 L 83.7 -47.3 L 87.1 -66 L 87.1 -66 Q 85.8 -67.2 84.2 -67.2 L 84.2 -67.2 L 84.2 -67.2 Q 82.6 -67.2 81.7 -66.7 L 81.7 -66.7 L 81.7 -66.7 Q 80.8 -66.2 80.1 -65 Z M 108.2 -63.9 L 108.2 -63.9 L 108.2 -63.9 Q 110.4 -66.9 113.7 -69 L 113.7 -69 L 113.7 -69 Q 117 -71 121 -71 L 121 -71 L 121 -71 Q 125.1 -71 127 -69.8 L 127 -69.8 L 139.5 -71 L 135.2 -46.5 L 135.2 -46.5 Q 133 -33.9 128.2 -29 L 128.2 -29 L 128.2 -29 Q 123.7 -24.3 114.8 -24.3 L 114.8 -24.3 L 114.8 -24.3 Q 108.1 -24.3 104.3 -26.4 L 104.3 -26.4 L 104.3 -26.4 Q 100.4 -28.5 100.4 -32.1 L 100.4 -32.1 L 100.4 -32.1 Q 100.4 -34.7 102.4 -36.2 L 102.4 -36.2 L 102.4 -36.2 Q 104.4 -37.7 107.5 -37.7 L 107.5 -37.7 L 107.5 -37.7 Q 110.2 -37.7 112.2 -36.5 L 112.2 -36.5 L 112.2 -36.5 Q 113.4 -35.8 114 -34.9 L 114 -34.9 L 114 -34.9 Q 112.5 -33.7 112.5 -31.5 L 112.5 -31.5 L 112.5 -31.5 Q 112.5 -28.8 115.1 -28.8 L 115.1 -28.8 L 115.1 -28.8 Q 119.4 -28.8 121.8 -38.9 L 121.8 -38.9 L 121.8 -38.9 Q 122.5 -41.7 123.1 -44.4 L 123.1 -44.4 L 123.1 -44.4 Q 120.2 -40.9 113.7 -40.9 L 113.7 -40.9 L 113.7 -40.9 Q 109.1 -40.9 106.5 -43.1 L 106.5 -43.1 L 106.5 -43.1 Q 103.9 -45.2 103.9 -50.4 L 103.9 -50.4 L 103.9 -50.4 Q 103.9 -53.6 105 -57.2 L 105 -57.2 L 105 -57.2 Q 106.1 -60.8 108.2 -63.9 Z M 116.6 -50.2 L 116.6 -50.2 L 116.6 -50.2 Q 116.6 -45.8 118.8 -45.8 L 118.8 -45.8 L 118.8 -45.8 Q 120.3 -45.8 121.8 -47.5 L 121.8 -47.5 L 121.8 -47.5 Q 123 -48.8 123.4 -50.8 L 123.4 -50.8 L 126.7 -67.3 L 126.7 -67.3 Q 126.4 -67.3 126 -67.5 L 126 -67.5 L 126 -67.5 Q 125.4 -67.7 124.6 -67.7 L 124.6 -67.7 L 124.6 -67.7 Q 120.7 -67.7 118.4 -61.3 L 118.4 -61.3 L 118.4 -61.3 Q 116.6 -56.3 116.6 -50.2 Z M 168 -47.9 L 168 -47.9 L 168 -47.9 Q 169.6 -46.8 169.6 -44.4 L 169.6 -44.4 L 169.6 -44.4 Q 169.6 -42 168.3 -40.5 L 168.3 -40.5 L 168.3 -40.5 Q 167.1 -39 165.1 -37.9 L 165.1 -37.9 L 165.1 -37.9 Q 161 -35.8 156.6 -35.8 L 156.6 -35.8 L 156.6 -35.8 Q 152.2 -35.8 149.6 -36.8 L 149.6 -36.8 L 149.6 -36.8 Q 147 -37.8 145.3 -39.5 L 145.3 -39.5 L 145.3 -39.5 Q 141.9 -42.9 141.9 -49.1 L 141.9 -49.1 L 141.9 -49.1 Q 141.9 -58.8 147.2 -64.7 L 147.2 -64.7 L 147.2 -64.7 Q 152.8 -71 162.6 -71 L 162.6 -71 L 162.6 -71 Q 168.7 -71 171.7 -68.5 L 171.7 -68.5 L 171.7 -68.5 Q 173.9 -66.6 173.9 -63.4 L 173.9 -63.4 L 173.9 -63.4 Q 173.9 -52.2 154.5 -52.2 L 154.5 -52.2 L 154.5 -52.2 Q 154.2 -50.5 154.2 -49.1 L 154.2 -49.1 L 154.2 -49.1 Q 154.2 -46.1 155.5 -45 L 155.5 -45 L 155.5 -45 Q 156.8 -43.9 159.3 -43.9 L 159.3 -43.9 L 159.3 -43.9 Q 161.7 -43.9 164.3 -45 L 164.3 -45 L 164.3 -45 Q 166.9 -46.1 168 -47.9 Z M 154.9 -54.9 L 154.9 -54.9 L 154.9 -54.9 Q 159.4 -54.9 162.1 -57.7 L 162.1 -57.7 L 162.1 -57.7 Q 164.7 -60.4 164.7 -64.7 L 164.7 -64.7 L 164.7 -64.7 Q 164.7 -66.2 164.2 -67 L 164.2 -67 L 164.2 -67 Q 163.6 -67.8 162.5 -67.8 L 162.5 -67.8 L 162.5 -67.8 Q 161.4 -67.8 160.5 -67.4 L 160.5 -67.4 L 160.5 -67.4 Q 159.6 -66.9 158.6 -65.5 L 158.6 -65.5 L 158.6 -65.5 Q 156.2 -62.3 154.9 -54.9 Z M 195.2 -59.6 L 195.2 -59.6 L 195.2 -59.6 Q 196.1 -61.9 196.1 -64 L 196.1 -64 L 196.1 -64 Q 196.1 -67.8 193 -67.8 L 193 -67.8 L 193 -67.8 Q 191.4 -67.8 190.1 -66.3 L 190.1 -66.3 L 190.1 -66.3 Q 188.8 -64.9 188.8 -63.1 L 188.8 -63.1 L 188.8 -63.1 Q 188.8 -61.8 189.8 -60.8 L 189.8 -60.8 L 189.8 -60.8 Q 191.3 -59.4 195.1 -57.1 L 195.1 -57.1 L 195.1 -57.1 Q 198.9 -54.8 200.3 -52.9 L 200.3 -52.9 L 200.3 -52.9 Q 201.8 -51 201.8 -48.4 L 201.8 -48.4 L 201.8 -48.4 Q 201.8 -45.8 200.5 -43.5 L 200.5 -43.5 L 200.5 -43.5 Q 199.3 -41.1 197 -39.4 L 197 -39.4 L 197 -39.4 Q 192.2 -35.8 184.5 -35.8 L 184.5 -35.8 L 184.5 -35.8 Q 180.4 -35.8 177.2 -38 L 177.2 -38 L 177.2 -38 Q 174 -40.1 174 -42.6 L 174 -42.6 L 174 -42.6 Q 174 -45.1 175.8 -46.6 L 175.8 -46.6 L 175.8 -46.6 Q 177.6 -48.1 180.3 -48.1 L 180.3 -48.1 L 180.3 -48.1 Q 183 -48.1 184.7 -47 L 184.7 -47 L 184.7 -47 Q 183.8 -44.9 183.8 -43.5 L 183.8 -43.5 L 183.8 -43.5 Q 183.8 -39.3 187.4 -39.3 L 187.4 -39.3 L 187.4 -39.3 Q 189 -39.3 190 -40.3 L 190 -40.3 L 190 -40.3 Q 191 -41.2 191 -42.9 L 191 -42.9 L 191 -42.9 Q 191 -46.1 185.5 -49.6 L 185.5 -49.6 L 185.5 -49.6 Q 181 -52.5 180 -53.7 L 180 -53.7 L 180 -53.7 Q 178.3 -55.7 178.3 -58.3 L 178.3 -58.3 L 178.3 -58.3 Q 178.3 -60.9 179.5 -63.3 L 179.5 -63.3 L 179.5 -63.3 Q 180.7 -65.7 182.9 -67.5 L 182.9 -67.5 L 182.9 -67.5 Q 187.6 -71 195.7 -71 L 195.7 -71 L 195.7 -71 Q 199.9 -71 202.4 -69.4 L 202.4 -69.4 L 202.4 -69.4 Q 204.8 -67.7 204.8 -64.9 L 204.8 -64.9 L 204.8 -64.9 Q 204.8 -62.1 203.1 -60.5 L 203.1 -60.5 L 203.1 -60.5 Q 201.4 -58.9 198.4 -58.9 L 198.4 -58.9 L 198.4 -58.9 Q 196.2 -58.9 195.2 -59.6 Z M 246.3 -57.7 L 259.2 -58.9 L 259.2 -58.9 Q 254.6 -48.8 254.6 -37.1 L 254.6 -37.1 L 254.6 -37.1 Q 252.9 -35.8 250.4 -35.8 L 250.4 -35.8 L 250.4 -35.8 Q 247.8 -35.8 246.2 -37 L 246.2 -37 L 246.2 -37 Q 244.6 -38.2 244.3 -39.4 L 244.3 -39.4 L 244.3 -39.4 Q 242.7 -37.8 240.1 -36.8 L 240.1 -36.8 L 240.1 -36.8 Q 237.5 -35.8 234.8 -35.8 L 234.8 -35.8 L 234.8 -35.8 Q 232 -35.8 229.6 -36.7 L 229.6 -36.7 L 229.6 -36.7 Q 227.2 -37.6 225.4 -39.6 L 225.4 -39.6 L 225.4 -39.6 Q 221.3 -44 221.3 -52.2 L 221.3 -52.2 L 221.3 -52.2 Q 221.3 -65 228.1 -72.7 L 228.1 -72.7 L 228.1 -72.7 Q 235.2 -80.6 247.6 -80.6 L 247.6 -80.6 L 247.6 -80.6 Q 256.3 -80.6 259.4 -76.2 L 259.4 -76.2 L 259.4 -76.2 Q 260.3 -74.7 260.3 -73.1 L 260.3 -73.1 L 260.3 -73.1 Q 260.3 -71.4 259.6 -69.9 L 259.6 -69.9 L 259.6 -69.9 Q 258.8 -68.5 257.7 -67.3 L 257.7 -67.3 L 257.7 -67.3 Q 254.9 -64.8 251.5 -64.8 L 251.5 -64.8 L 251.5 -64.8 Q 250.2 -64.8 248.9 -65.2 L 248.9 -65.2 L 248.9 -65.2 Q 249.2 -67.1 249.2 -69.4 L 249.2 -69.4 L 249.2 -69.4 Q 249.2 -71.6 249 -72.6 L 249 -72.6 L 249 -72.6 Q 248.9 -73.7 248.5 -74.5 L 248.5 -74.5 L 248.5 -74.5 Q 247.6 -76.2 245.8 -76.2 L 245.8 -76.2 L 245.8 -76.2 Q 244 -76.2 242 -74.3 L 242 -74.3 L 242 -74.3 Q 240 -72.3 238.4 -69.1 L 238.4 -69.1 L 238.4 -69.1 Q 234.8 -61.9 234.8 -53.3 L 234.8 -53.3 L 234.8 -53.3 Q 234.8 -49.3 236.4 -46.5 L 236.4 -46.5 L 236.4 -46.5 Q 238 -43.5 241 -43.5 L 241 -43.5 L 241 -43.5 Q 242 -43.5 242.9 -44 L 242.9 -44 L 242.9 -44 Q 243.9 -44.5 244.2 -44.9 L 244.2 -44.9 L 246.3 -57.7 Z M 265.1 -39 L 265.1 -39 L 265.1 -39 Q 263.6 -40.7 263 -43.3 L 263 -43.3 L 263 -43.3 Q 262.3 -45.9 262.3 -50.2 L 262.3 -50.2 L 262.3 -50.2 Q 262.3 -54.5 263.8 -58.4 L 263.8 -58.4 L 263.8 -58.4 Q 265.2 -62.3 267.9 -65.1 L 267.9 -65.1 L 267.9 -65.1 Q 273.4 -71 282.5 -71 L 282.5 -71 L 282.5 -71 Q 285.8 -71 288.2 -69.9 L 288.2 -69.9 L 299.1 -71 L 294.4 -46.1 L 294.4 -46.1 Q 294.2 -45.3 294.2 -43.9 L 294.2 -43.9 L 294.2 -43.9 Q 294.2 -42.5 295 -41.6 L 295 -41.6 L 295 -41.6 Q 295.9 -40.7 297.2 -40.6 L 297.2 -40.6 L 297.2 -40.6 Q 296.5 -38.4 294.2 -37.1 L 294.2 -37.1 L 294.2 -37.1 Q 291.9 -35.8 289.2 -35.8 L 289.2 -35.8 L 289.2 -35.8 Q 286.6 -35.8 284.9 -36.8 L 284.9 -36.8 L 284.9 -36.8 Q 283.1 -37.8 282.6 -39.5 L 282.6 -39.5 L 282.6 -39.5 Q 281.6 -37.9 279.4 -36.9 L 279.4 -36.9 L 279.4 -36.9 Q 277.2 -35.8 274.3 -35.8 L 274.3 -35.8 L 274.3 -35.8 Q 271.4 -35.8 269 -36.6 L 269 -36.6 L 269 -36.6 Q 266.6 -37.4 265.1 -39 Z M 278.6 -65 L 278.6 -65 L 278.6 -65 Q 277.9 -63.9 277.3 -61.9 L 277.3 -61.9 L 277.3 -61.9 Q 276.6 -60 275.6 -54.7 L 275.6 -54.7 L 275.6 -54.7 Q 274.5 -49.5 274.5 -45.8 L 274.5 -45.8 L 274.5 -45.8 Q 274.5 -42.1 275.1 -41 L 275.1 -41 L 275.1 -41 Q 275.7 -39.9 276.7 -39.9 L 276.7 -39.9 L 276.7 -39.9 Q 278.7 -39.9 280.2 -41.9 L 280.2 -41.9 L 280.2 -41.9 Q 281.8 -43.8 282.3 -47.3 L 282.3 -47.3 L 285.7 -66 L 285.7 -66 Q 284.4 -67.2 282.8 -67.2 L 282.8 -67.2 L 282.8 -67.2 Q 281.2 -67.2 280.3 -66.7 L 280.3 -66.7 L 280.3 -66.7 Q 279.4 -66.2 278.6 -65 Z M 317.8 -40.6 L 317.8 -40.6 L 317.8 -40.6 Q 315.9 -35.8 309.5 -35.8 L 309.5 -35.8 L 309.5 -35.8 Q 306.3 -35.8 304.3 -38.1 L 304.3 -38.1 L 304.3 -38.1 Q 302.6 -39.9 302.6 -42 L 302.6 -42 L 302.6 -42 Q 302.6 -46.8 304.9 -57.3 L 304.9 -57.3 L 309.5 -81.9 L 322.5 -83.2 L 316.3 -50.8 L 316.3 -50.8 Q 315.2 -46.1 315.2 -44.4 L 315.2 -44.4 L 315.2 -44.4 Q 315.2 -40.8 317.8 -40.6 Z M 338.6 -40.6 L 338.6 -40.6 L 338.6 -40.6 Q 336.6 -35.8 330.3 -35.8 L 330.3 -35.8 L 330.3 -35.8 Q 327.1 -35.8 325 -38.1 L 325 -38.1 L 325 -38.1 Q 323.4 -39.9 323.4 -42 L 323.4 -42 L 323.4 -42 Q 323.4 -46.8 325.6 -57.3 L 325.6 -57.3 L 330.3 -81.9 L 343.3 -83.2 L 337 -50.8 L 337 -50.8 Q 336 -46.1 336 -44.4 L 336 -44.4 L 336 -44.4 Q 336 -40.8 338.6 -40.6 Z M 369.9 -47.9 L 369.9 -47.9 L 369.9 -47.9 Q 371.5 -46.8 371.5 -44.4 L 371.5 -44.4 L 371.5 -44.4 Q 371.5 -42 370.3 -40.5 L 370.3 -40.5 L 370.3 -40.5 Q 369.1 -39 367.1 -37.9 L 367.1 -37.9 L 367.1 -37.9 Q 363 -35.8 358.6 -35.8 L 358.6 -35.8 L 358.6 -35.8 Q 354.2 -35.8 351.6 -36.8 L 351.6 -36.8 L 351.6 -36.8 Q 349 -37.8 347.3 -39.5 L 347.3 -39.5 L 347.3 -39.5 Q 343.9 -42.9 343.9 -49.1 L 343.9 -49.1 L 343.9 -49.1 Q 343.9 -58.8 349.1 -64.7 L 349.1 -64.7 L 349.1 -64.7 Q 354.8 -71 364.6 -71 L 364.6 -71 L 364.6 -71 Q 370.6 -71 373.7 -68.5 L 373.7 -68.5 L 373.7 -68.5 Q 375.9 -66.6 375.9 -63.4 L 375.9 -63.4 L 375.9 -63.4 Q 375.9 -52.2 356.4 -52.2 L 356.4 -52.2 L 356.4 -52.2 Q 356.2 -50.5 356.2 -49.1 L 356.2 -49.1 L 356.2 -49.1 Q 356.2 -46.1 357.5 -45 L 357.5 -45 L 357.5 -45 Q 358.8 -43.9 361.2 -43.9 L 361.2 -43.9 L 361.2 -43.9 Q 363.7 -43.9 366.3 -45 L 366.3 -45 L 366.3 -45 Q 368.9 -46.1 369.9 -47.9 Z M 356.9 -54.9 L 356.9 -54.9 L 356.9 -54.9 Q 361.4 -54.9 364.1 -57.7 L 364.1 -57.7 L 364.1 -57.7 Q 366.7 -60.4 366.7 -64.7 L 366.7 -64.7 L 366.7 -64.7 Q 366.7 -66.2 366.1 -67 L 366.1 -67 L 366.1 -67 Q 365.6 -67.8 364.5 -67.8 L 364.5 -67.8 L 364.5 -67.8 Q 363.4 -67.8 362.5 -67.4 L 362.5 -67.4 L 362.5 -67.4 Q 361.6 -66.9 360.6 -65.5 L 360.6 -65.5 L 360.6 -65.5 Q 358.2 -62.3 356.9 -54.9 Z M 398.1 -55.1 L 398.1 -55.1 L 398.1 -55.1 Q 400.4 -59.2 400.4 -63.4 L 400.4 -63.4 L 400.4 -63.4 Q 400.4 -66.1 398.4 -66.1 L 398.4 -66.1 L 398.4 -66.1 Q 396.9 -66.1 395.3 -63.5 L 395.3 -63.5 L 395.3 -63.5 Q 393.6 -60.9 393.1 -57.5 L 393.1 -57.5 L 389.8 -37.1 L 376.5 -35.8 L 383.1 -69.8 L 393.6 -71 L 392.5 -64.6 L 392.5 -64.6 Q 395.6 -71 402.6 -71 L 402.6 -71 L 402.6 -71 Q 406.4 -71 408.4 -69.1 L 408.4 -69.1 L 408.4 -69.1 Q 410.4 -67.2 410.4 -63.3 L 410.4 -63.3 L 410.4 -63.3 Q 410.4 -59.3 407.8 -56.8 L 407.8 -56.8 L 407.8 -56.8 Q 405.2 -54.3 400.8 -54.3 L 400.8 -54.3 L 400.8 -54.3 Q 398.9 -54.3 398.1 -55.1 Z M 431.8 -44.3 L 431.8 -44.3 L 431.8 -44.3 Q 428.4 -40.9 422.4 -40.9 L 422.4 -40.9 L 422.4 -40.9 Q 414.7 -40.9 413.1 -46.5 L 413.1 -46.5 L 413.1 -46.5 Q 412.6 -48.1 412.6 -50 L 412.6 -50 L 412.6 -50 Q 412.6 -51.8 413 -53.8 L 413 -53.8 L 416 -69.8 L 429 -71 L 425.5 -52.4 L 425.5 -52.4 Q 425.4 -51.6 425.2 -50.7 L 425.2 -50.7 L 425.2 -50.7 Q 425 -49.8 425 -48.9 L 425 -48.9 L 425 -48.9 Q 425 -47.9 425.3 -47.3 L 425.3 -47.3 L 425.3 -47.3 Q 425.6 -46.7 426.1 -46.3 L 426.1 -46.3 L 426.1 -46.3 Q 426.8 -45.8 428.2 -45.8 L 428.2 -45.8 L 428.2 -45.8 Q 429.6 -45.8 430.8 -47.5 L 430.8 -47.5 L 430.8 -47.5 Q 432 -49.1 432.5 -52 L 432.5 -52 L 436.1 -69.8 L 448.7 -71 L 443.9 -45.9 L 443.9 -45.9 Q 441.5 -33.6 436.6 -28.7 L 436.6 -28.7 L 436.6 -28.7 Q 434.1 -26.2 430.9 -25.2 L 430.9 -25.2 L 430.9 -25.2 Q 427.7 -24.3 423.5 -24.3 L 423.5 -24.3 L 423.5 -24.3 Q 416.8 -24.3 413 -26.4 L 413 -26.4 L 413 -26.4 Q 409.1 -28.5 409.1 -32 L 409.1 -32 L 409.1 -32 Q 409.1 -34.6 411.1 -36.1 L 411.1 -36.1 L 411.1 -36.1 Q 413.1 -37.6 416.2 -37.6 L 416.2 -37.6 L 416.2 -37.6 Q 418.8 -37.6 420.9 -36.5 L 420.9 -36.5 L 420.9 -36.5 Q 422.1 -35.8 422.7 -34.9 L 422.7 -34.9 L 422.7 -34.9 Q 421.2 -33.6 421.2 -31.5 L 421.2 -31.5 L 421.2 -31.5 Q 421.2 -28.7 423.8 -28.7 L 423.8 -28.7 L 423.8 -28.7 Q 428 -28.7 430.4 -38.4 L 430.4 -38.4 L 430.4 -38.4 Q 431.1 -41.3 431.8 -44.3 Z" fill="url(#editing-gradient-gradient)"></path></g></g><style>text {
  fontSize: 64px;
  fontFamily: Arial Black;
  dominantBaseline: central;
  textAnchor: middle;
}</style></svg>